<?xml version="1.0" standalone="no"?>
<!DOCTYPE svg PUBLIC "-//W3C//DTD SVG 20010904//EN"
 "http://www.w3.org/TR/2001/REC-SVG-20010904/DTD/svg10.dtd">
<svg version="1.0" xmlns="http://www.w3.org/2000/svg"
 width="1200.000000pt" height="1200.000000pt" viewBox="0 0 1200.000000 1200.000000"
 preserveAspectRatio="xMidYMid meet">
<metadata>
Created by potrace 1.11, written by Peter Selinger 2001-2013
</metadata>
<g transform="translate(0.000000,1200.000000) scale(0.100000,-0.100000)"
fill="#000000" stroke="none">
<path d="M0 6000 l0 -6000 6000 0 6000 0 0 6000 0 6000 -6000 0 -6000 0 0
-6000z m6001 4150 c2186 -611 3994 -1117 4018 -1125 25 -8 55 -25 68 -37 l23
-21 0 -3157 c0 -2843 -2 -3158 -16 -3178 -8 -12 -28 -29 -44 -37 -16 -8 -615
-150 -1332 -314 -2237 -514 -4705 -1081 -5643 -1296 -495 -113 -937 -215 -983
-226 -110 -25 -126 -24 -164 10 l-33 29 -3 5197 -2 5197 34 34 c25 25 43 34
68 34 19 0 1823 -500 4009 -1110z"/>
<path d="M3415 6944 c-213 -46 -367 -188 -406 -372 -6 -32 -9 -95 -6 -145 4
-72 10 -99 36 -152 59 -119 143 -175 390 -259 82 -27 148 -57 170 -74 76 -61
63 -154 -27 -195 -37 -17 -65 -22 -132 -21 -98 1 -177 20 -301 73 -49 22 -89
37 -89 35 0 -2 -20 -77 -45 -166 -33 -120 -41 -164 -32 -170 30 -19 204 -69
288 -84 139 -24 337 -15 445 20 240 78 362 249 352 496 -3 84 -8 105 -36 163
-59 119 -150 178 -399 256 -163 52 -208 85 -208 151 0 35 6 47 32 71 64 57
164 61 304 14 40 -14 95 -38 124 -54 l51 -29 45 174 c38 151 42 176 29 184
-27 18 -144 59 -210 75 -96 23 -289 28 -375 9z"/>
<path d="M8418 6950 c-298 -50 -477 -278 -437 -555 27 -191 129 -282 425 -379
138 -46 200 -83 212 -128 20 -76 -29 -138 -125 -159 -100 -21 -272 15 -416 88
-35 17 -49 20 -52 11 -15 -45 -86 -320 -83 -323 2 -2 24 -12 48 -23 171 -73
439 -102 618 -67 160 32 303 127 371 246 69 121 79 303 23 423 -56 118 -149
181 -377 256 -71 24 -143 49 -159 57 -48 25 -76 62 -76 102 0 134 199 157 421
50 45 -22 86 -36 90 -32 4 4 26 82 49 172 34 133 39 165 28 172 -34 22 -188
71 -265 84 -91 16 -217 18 -295 5z"/>
<path d="M4110 6760 l0 -170 195 0 195 0 0 -585 0 -585 205 0 205 0 0 585 0
585 195 0 195 0 0 170 0 170 -595 0 -595 0 0 -170z"/>
<path d="M5521 6247 c-118 -375 -225 -715 -237 -754 l-22 -73 208 0 208 0 32
130 32 130 227 0 227 0 33 -130 34 -130 217 0 217 0 -231 755 -231 755 -250 0
-250 0 -214 -683z m522 29 c37 -145 67 -271 67 -280 0 -14 -17 -16 -140 -16
-127 0 -140 2 -140 18 -1 24 134 542 140 542 3 0 36 -119 73 -264z"/>
<path d="M6660 6760 l0 -170 195 0 195 0 0 -585 0 -585 205 0 205 0 0 585 0
585 195 0 195 0 0 170 0 170 -595 0 -595 0 0 -170z"/>
</g>
</svg>
